<?xml version="1.0" standalone="no"?>
<!DOCTYPE svg PUBLIC "-//W3C//DTD SVG 20010904//EN"
 "http://www.w3.org/TR/2001/REC-SVG-20010904/DTD/svg10.dtd">
<svg version="1.0" xmlns="http://www.w3.org/2000/svg"
 width="1600.000000pt" height="900.000000pt" viewBox="0 0 1600.000000 900.000000"
 preserveAspectRatio="xMidYMid meet">

<g transform="translate(0.000000,900.000000) scale(0.100000,-0.100000)"
fill="#000000" stroke="none">
<path d="M0 4500 l0 -4500 8000 0 8000 0 0 4500 0 4500 -8000 0 -8000 0 0
-4500z m7765 1837 l7 -59 44 4 c24 2 44 0 44 -4 0 -5 -8 -8 -19 -8 -10 0 -32
-3 -49 -6 -36 -7 -38 -2 -46 116 -6 94 8 63 19 -43z m550 34 c-22 -106 -22
-106 33 -119 l47 -11 -55 5 c-30 3 -56 7 -58 9 -4 4 28 177 35 188 13 21 12
-6 -2 -72z m-826 20 l-54 -16 9 -43 c9 -43 10 -44 43 -37 19 3 42 9 50 12 11
4 14 2 9 -5 -4 -7 -13 -12 -21 -12 -8 0 -25 -4 -38 -9 -20 -8 -24 -15 -19 -36
4 -25 8 -27 42 -21 21 3 46 9 56 13 11 4 15 3 11 -4 -6 -9 -69 -26 -101 -28
-8 0 -56 145 -56 170 0 12 100 44 115 36 5 -2 -16 -12 -46 -20z m1107 -115
c-15 -47 -31 -86 -36 -86 -5 0 5 41 22 91 17 49 32 88 35 85 3 -2 -7 -43 -21
-90z m247 -42 c3 -31 8 -58 11 -61 2 -3 24 7 49 21 24 14 49 26 55 26 7 0 -7
-38 -30 -85 -23 -47 -46 -85 -50 -85 -5 0 8 31 27 70 19 38 35 72 35 75 0 3
-20 -6 -45 -21 -25 -14 -48 -24 -50 -22 -3 2 -8 29 -13 59 l-8 54 -38 -74
c-20 -40 -40 -71 -42 -68 -7 7 74 167 85 167 4 0 11 -25 14 -56z m-1602 17
c71 -71 -2 -192 -97 -161 -43 15 -64 45 -64 93 0 53 43 97 95 97 27 0 44 -8
66 -29z m-327 -203 c50 -68 54 -82 30 -117 -37 -53 -118 -59 -144 -11 -14 26
1 26 18 0 27 -43 122 -7 122 47 0 25 -64 123 -80 123 -5 0 -12 -4 -15 -10 -3
-5 -11 -10 -17 -10 -6 0 -3 9 7 20 10 11 21 20 26 20 4 0 28 -28 53 -62z
m2296 0 c0 -21 -52 -172 -63 -183 -7 -7 -8 -4 -3 8 19 56 18 64 -14 87 -29 21
-32 21 -56 5 -14 -9 -29 -15 -34 -13 -9 3 147 106 163 107 4 1 7 -5 7 -11z
m-2565 -300 c-341 -367 -522 -878 -484 -1373 32 -426 201 -821 477 -1117 34
-36 62 -68 62 -72 0 -38 -121 90 -230 243 -455 639 -451 1511 9 2155 84 118
210 256 233 256 15 0 -2 -23 -67 -92z m2727 20 c269 -303 412 -604 480 -1008
16 -99 16 -423 -1 -524 -45 -273 -131 -508 -263 -720 -92 -147 -250 -336 -281
-336 -13 0 4 24 58 83 218 236 383 564 444 880 112 581 -57 1179 -454 1605
-65 69 -82 92 -67 92 12 0 46 -29 84 -72z m-1332 -208 l0 -170 100 0 100 0 0
-730 0 -730 350 0 350 0 0 -30 0 -30 -480 0 -480 0 0 700 0 700 30 0 30 0 0
-670 0 -670 64 0 c58 0 64 2 70 23 3 12 6 327 6 700 l0 677 -315 0 -315 0 0
30 0 30 215 0 215 0 0 170 0 170 30 0 30 0 0 -170z m-720 -1565 l0 -35 -96 0
-96 0 7 -47 c17 -120 72 -220 167 -308 97 -91 212 -137 342 -138 194 -2 379
108 466 276 33 62 37 67 68 67 30 0 33 -2 26 -22 -36 -119 -160 -256 -289
-321 -126 -63 -295 -80 -419 -43 -197 59 -354 213 -409 402 -18 62 -32 178
-22 193 4 7 52 11 131 11 l124 0 0 -35z m-404 -872 c-3 -10 -13 -49 -22 -88
-18 -73 -42 -118 -30 -56 6 35 4 39 -51 77 -17 12 -26 13 -43 4 -12 -6 -24 -9
-27 -6 -6 6 146 85 165 86 8 0 11 -7 8 -17z m2277 -25 c45 -22 77 -43 70 -45
-7 -2 -21 1 -33 7 -17 9 -26 6 -56 -17 -31 -24 -35 -32 -30 -60 9 -62 -10 -33
-27 40 -10 39 -20 82 -23 95 -9 31 4 28 99 -20z m-1997 -154 c32 -31 31 -74
-2 -113 -18 -22 -35 -31 -56 -31 -29 0 -108 37 -108 51 0 7 41 85 67 127 13
21 15 22 45 6 17 -9 42 -27 54 -40z m1781 -100 c-7 -7 -87 130 -87 148 0 7 21
-22 46 -65 26 -43 44 -80 41 -83z m-237 46 c0 -5 -15 -10 -34 -10 -25 0 -40
-7 -55 -26 -12 -15 -21 -33 -21 -40 0 -29 24 -64 52 -73 33 -12 54 -6 86 22
12 11 22 16 22 9 0 -20 -52 -52 -85 -52 -45 0 -85 41 -85 87 0 46 45 93 89 93
17 0 31 -4 31 -10z m-1339 -90 c1 -25 4 -58 8 -75 l6 -29 54 62 c30 34 58 62
64 62 5 0 -19 -31 -53 -70 -34 -38 -66 -70 -70 -70 -12 0 -18 25 -25 115 -4
56 -3 76 4 65 6 -8 11 -35 12 -60z m1039 -80 c29 -39 50 -73 47 -76 -3 -3 -12
3 -19 15 -14 24 -27 25 -80 10 -27 -7 -38 -16 -38 -29 0 -10 -5 -22 -11 -26
-8 -5 -10 0 -6 17 3 13 11 49 17 79 21 102 22 102 90 10z m-625 25 c56 -56 16
-145 -65 -145 -54 0 -90 34 -90 85 0 78 100 116 155 60z m320 1 c18 -13 15
-14 -26 -9 -39 4 -49 2 -68 -18 -23 -24 -27 -59 -11 -89 14 -26 65 -42 96 -30
35 14 42 12 20 -5 -25 -19 -59 -19 -95 0 -32 16 -41 33 -41 78 1 67 75 110
125 73z"/>
<path d="M7150 6263 c-61 -23 -79 -95 -35 -138 53 -54 145 -13 145 64 0 43
-69 90 -110 74z"/>
<path d="M9148 6012 c-34 -20 -34 -26 -6 -47 22 -15 23 -14 35 17 20 55 16 59
-29 30z"/>
<path d="M6846 3099 l-39 -21 29 -24 c37 -30 40 -30 48 4 4 15 9 35 12 45 7
22 -2 21 -50 -4z"/>
<path d="M9110 3113 c0 -17 21 -83 27 -83 3 0 18 11 34 25 l30 24 -40 21 c-44
22 -51 24 -51 13z"/>
<path d="M7081 2919 l-34 -62 24 -18 c47 -35 95 -29 125 15 23 36 11 70 -33
101 -21 14 -40 25 -43 25 -3 0 -21 -28 -39 -61z"/>
<path d="M8377 2764 c-3 -5 -8 -27 -12 -48 l-8 -39 33 6 c18 4 37 7 42 7 10 0
-2 23 -30 59 -11 13 -22 20 -25 15z"/>
<path d="M7709 2750 c-29 -17 -43 -65 -27 -97 40 -85 174 -29 138 58 -19 45
-70 63 -111 39z"/>
</g>
</svg>
